HIERARCHY
ROOT root
{
	OFFSET 0.000000 0.000000 0.000000
	CHANNELS 6 Xposition Yposition Zposition Zrotation Yrotation Xrotation
	JOINT lhip
	{
		OFFSET 0.058581 -0.082280 -0.017664
		CHANNELS 3 Zrotation Yrotation Xrotation
		JOINT lknee
		{
			OFFSET 0.043451 -0.386469 0.008037
			CHANNELS 3 Zrotation Yrotation Xrotation
			JOINT lankle
			{
				OFFSET -0.014790 -0.426874 -0.037428
				CHANNELS 3 Zrotation Yrotation Xrotation
				JOINT ltoe
				{
					OFFSET 0.041054 -0.060286 0.122042
					CHANNELS 3 Zrotation Yrotation Xrotation
					End Site
					{
						OFFSET 0.000000 0.000000 0.000000
					}
				}
			}
		}
	}
	JOINT rhip
	{
		OFFSET -0.060310 -0.090513 -0.013543
		CHANNELS 3 Zrotation Yrotation Xrotation
		JOINT rknee
		{
			OFFSET -0.043257 -0.383688 -0.004843
			CHANNELS 3 Zrotation Yrotation Xrotation
			JOINT rankle
			{
				OFFSET 0.019056 -0.420046 -0.034562
				CHANNELS 3 Zrotation Yrotation Xrotation
				JOINT rtoe
				{
					OFFSET -0.034840 -0.062106 0.130323
					CHANNELS 3 Zrotation Yrotation Xrotation
					End Site
					{
						OFFSET 0.000000 0.000000 0.000000
					}
				}
			}
		}
	}
	JOINT lowerback
	{
		OFFSET 0.004439 0.124404 -0.038385
		CHANNELS 3 Zrotation Yrotation Xrotation
		JOINT upperback
		{
			OFFSET 0.004488 0.137956 0.026820
			CHANNELS 3 Zrotation Yrotation Xrotation
			JOINT chest
			{
				OFFSET -0.002265 0.056032 0.002855
				CHANNELS 3 Zrotation Yrotation Xrotation
				JOINT lowerneck
				{
					OFFSET -0.013390 0.211636 -0.033468
					CHANNELS 3 Zrotation Yrotation Xrotation
					JOINT upperneck
					{
						OFFSET 0.010113 0.088937 0.050410
						CHANNELS 3 Zrotation Yrotation Xrotation
						End Site
						{
							OFFSET 0.000000 0.000000 0.000000
						}
					}
				}
				JOINT lclavicle
				{
					OFFSET 0.071702 0.114000 -0.018898
					CHANNELS 3 Zrotation Yrotation Xrotation
					JOINT lshoulder
					{
						OFFSET 0.122921 0.045205 -0.019046
						CHANNELS 3 Zrotation Yrotation Xrotation
						JOINT lelbow
						{
							OFFSET 0.255332 -0.015649 -0.022946
							CHANNELS 3 Zrotation Yrotation Xrotation
							JOINT lwrist
							{
								OFFSET 0.265709 0.012698 -0.007375
								CHANNELS 3 Zrotation Yrotation Xrotation
								End Site
								{
									OFFSET 0.000000 0.000000 0.000000
								}
							}
						}
					}
				}
				JOINT rclavicle
				{
					OFFSET -0.082954 0.112472 -0.023707
					CHANNELS 3 Zrotation Yrotation Xrotation
					JOINT rshoulder
					{
						OFFSET -0.113228 0.046853 -0.008472
						CHANNELS 3 Zrotation Yrotation Xrotation
						JOINT relbow
						{
							OFFSET -0.260127 -0.014369 -0.031269
							CHANNELS 3 Zrotation Yrotation Xrotation
							JOINT rwrist
							{
								OFFSET -0.269108 0.006794 -0.006027
								CHANNELS 3 Zrotation Yrotation Xrotation
								End Site
								{
									OFFSET 0.000000 0.000000 0.000000
								}
							}
						}
					}
				}
			}
		}
	}
}
MOTION
Frames: 6
Frame Time: 0.033333
0.359580 0.178153 0.987423 87.381342 -0.154593 91.513878 7.296146 4.373534 4.349542 -3.602280 -1.265007 -2.681832 -1.255242 8.521972 -4.500089 0.000000 -0.000000 0.000000 -8.128571 -2.584165 -2.288596 1.984339 -1.309046 4.814256 5.412758 -4.403363 -7.032282 0.000000 -0.000000 0.000000 -4.231094 2.056266 -6.177947 1.953899 -1.578898 9.708734 0.188084 -0.425858 -4.356032 4.290132 3.868170 3.268048 4.392356 -4.088932 -0.372654 -23.365600 -0.745538 0.350394 -57.945109 -7.490150 17.626269 0.772830 -20.575362 9.660797 -4.402150 -13.606466 5.969376 27.445630 2.275763 5.946221 55.702327 5.491107 13.560901 -8.666358 24.666311 -4.214443 -0.456596 8.635256 -5.110376 
0.359701 0.178102 0.987297 87.356443 -0.144628 91.545023 7.303063 4.353342 4.411492 -3.610938 -1.270709 -2.833817 -1.291987 8.535896 -4.459754 0.000000 -0.000000 0.000000 -8.124157 -2.589071 -2.246817 2.000053 -1.198629 4.685985 5.441205 -4.488040 -7.004775 0.000000 -0.000000 0.000000 -4.125214 1.958353 -6.052878 1.824927 -1.505940 9.349067 0.192141 -0.364034 -4.136596 4.280330 3.759663 2.882004 4.398794 -4.138830 0.248425 -23.166665 -0.821774 0.442692 -58.190885 -7.447943 17.461244 0.740618 -20.632486 9.971586 -4.465409 -13.411995 5.873513 27.288915 2.236808 6.070405 56.010554 5.605817 13.615880 -8.835068 24.704342 -4.242873 -0.338532 8.516250 -5.118694 
0.359846 0.178119 0.987280 87.383371 -0.150370 91.627211 7.291077 4.363466 4.362857 -3.610749 -1.273339 -2.897322 -1.272746 8.482997 -4.402905 0.000000 -0.000000 0.000000 -8.130176 -2.612188 -2.245965 1.993896 -1.230180 4.545611 5.465278 -4.479882 -6.949187 0.000000 -0.000000 0.000000 -4.108106 1.943779 -6.199409 1.804588 -1.516693 9.421677 0.169902 -0.377650 -4.131182 4.303208 3.785010 2.902519 4.425749 -4.253679 0.368204 -23.120287 -0.841337 0.492588 -58.282856 -7.455580 17.465626 0.725604 -20.747167 9.937504 -4.474571 -13.435721 5.865240 27.236935 2.308607 6.102357 56.141218 5.551050 13.681336 -8.925543 24.761348 -4.285761 -0.405603 8.501102 -5.142481 
0.360054 0.178071 0.987241 87.391653 -0.170391 91.705139 7.260377 4.342784 4.331507 -3.612057 -1.264365 -2.988153 -1.299098 8.489390 -4.401843 0.000000 -0.000000 0.000000 -8.156823 -2.618216 -2.249195 1.998912 -1.246216 4.419548 5.502625 -4.455735 -6.905530 0.000000 -0.000000 0.000000 -4.108392 1.912401 -6.200719 1.780149 -1.539260 9.325762 0.174964 -0.373906 -4.068071 4.303304 3.768453 2.820299 4.382304 -4.158891 0.413582 -23.119573 -0.788062 0.488229 -58.464413 -7.511890 17.514925 0.822304 -20.761289 10.049086 -4.397072 -13.555821 5.763556 27.186903 2.202438 6.040721 56.240620 5.655821 13.671604 -8.877948 24.730527 -4.075278 -0.458892 8.387788 -5.145337 
0.360066 0.178066 0.987228 87.398652 -0.170307 91.712118 7.265108 4.347556 4.311255 -3.620185 -1.257861 -2.966837 -1.301066 8.474736 -4.405986 0.000000 -0.000000 0.000000 -8.147876 -2.616750 -2.249394 1.984274 -1.250655 4.410182 5.501602 -4.457872 -6.914317 0.000000 -0.000000 0.000000 -4.109778 1.920558 -6.187187 1.781503 -1.545367 9.328053 0.171945 -0.377417 -4.072999 4.314997 3.772482 2.805327 4.365880 -4.183009 0.437474 -23.132673 -0.829730 0.505486 -58.488016 -7.537409 17.498356 0.807631 -20.714157 9.976606 -4.397793 -13.422318 5.726371 27.176081 2.226546 6.038948 56.267239 5.640102 13.680457 -8.911683 24.747616 -4.090093 -0.456292 8.299786 -5.107333 
0.360107 0.178130 0.987246 87.405017 -0.168600 91.734187 7.275726 4.341291 4.271272 -3.650102 -1.233274 -2.932777 -1.270262 8.443848 -4.390189 0.000000 -0.000000 0.000000 -8.159846 -2.622781 -2.247394 1.992869 -1.253897 4.366259 5.500829 -4.431954 -6.882359 0.000000 -0.000000 0.000000 -4.086549 1.944895 -6.159248 1.765244 -1.559812 9.329474 0.157662 -0.370839 -4.090405 4.292088 3.817530 2.788368 4.349912 -4.177219 0.387959 -23.141635 -0.896085 0.547740 -58.492018 -7.546531 17.466563 0.758562 -20.751944 9.909659 -4.425910 -13.319767 5.657306 27.193395 2.278232 6.082480 56.279022 5.610157 13.657298 -8.980168 24.791402 -4.141333 -0.439412 8.257000 -5.054461 
